<svg xmlns="http://www.w3.org/2000/svg" xmlns:xlink="http://www.w3.org/1999/xlink" width="500" zoomAndPan="magnify" viewBox="0 0 375 374.999991" height="500" preserveAspectRatio="xMidYMid meet" version="1.0"><defs><g/><clipPath id="7726b400af"><path d="M 28.371094 10.9375 L 346.371094 10.9375 L 346.371094 360 L 28.371094 360 Z M 28.371094 10.9375 " clip-rule="nonzero"/></clipPath></defs><path fill="#efe922" d="M 344.601562 255.359375 C 344.601562 259.882812 322.734375 275.335938 297.160156 275.335938 L 77.445312 275.335938 C 51.878906 275.335938 31.152344 245.117188 31.152344 228.996094 L 31.152344 59.300781 C 31.152344 33.707031 51.878906 12.957031 77.445312 12.957031 L 298.300781 12.957031 C 323.867188 12.957031 344.59375 33.707031 344.59375 59.300781 L 344.59375 255.359375 Z M 344.601562 255.359375 " fill-opacity="1" fill-rule="nonzero"/><path fill="#9ecc3b" d="M 141.351562 175.535156 C 141.351562 175.535156 157.585938 186.957031 158.65625 199.007812 C 159.722656 211.058594 144.625 212.402344 144.625 212.402344 C 144.625 212.402344 129.515625 213.75 128.441406 201.699219 C 127.378906 189.640625 141.351562 175.535156 141.351562 175.535156 Z M 141.351562 175.535156 " fill-opacity="1" fill-rule="nonzero"/><path fill="#0a5b2e" d="M 143.296875 213.992188 C 141.351562 213.992188 137.585938 213.757812 134.164062 212.167969 C 129.847656 210.160156 127.335938 206.589844 126.917969 201.828125 C 126.445312 196.46875 128.566406 190.214844 133.222656 183.238281 C 136.625 178.136719 140.113281 174.601562 140.261719 174.453125 C 140.792969 173.921875 141.632812 173.84375 142.242188 174.277344 C 142.417969 174.402344 146.472656 177.273438 150.71875 181.691406 C 156.527344 187.746094 159.722656 193.523438 160.191406 198.886719 C 160.691406 204.5 158.109375 208.902344 152.734375 211.617188 C 148.871094 213.574219 144.917969 213.941406 144.753906 213.957031 C 144.726562 213.949219 144.179688 213.992188 143.296875 213.992188 Z M 141.535156 177.605469 C 138.527344 180.925781 129.140625 192.109375 129.976562 201.558594 C 130.308594 205.261719 132.097656 207.8125 135.445312 209.375 C 138.335938 210.710938 141.597656 210.910156 143.28125 210.910156 C 144.011719 210.910156 144.464844 210.875 144.476562 210.875 C 144.507812 210.875 148.070312 210.527344 151.402344 208.824219 C 155.570312 206.691406 157.488281 203.4375 157.105469 199.15625 C 156.277344 189.683594 145.085938 180.339844 141.535156 177.605469 Z M 141.535156 177.605469 " fill-opacity="1" fill-rule="nonzero"/><path fill="#0a5b2e" d="M 145.496094 221.179688 C 144.710938 221.179688 144.039062 220.578125 143.960938 219.78125 L 139.816406 175.683594 C 139.738281 174.835938 140.359375 174.085938 141.203125 174 C 142.050781 173.921875 142.800781 174.539062 142.886719 175.398438 L 147.03125 219.496094 C 147.109375 220.34375 146.488281 221.09375 145.636719 221.179688 C 145.589844 221.171875 145.539062 221.179688 145.496094 221.179688 Z M 145.496094 221.179688 " fill-opacity="1" fill-rule="nonzero"/><path fill="#0a5b2e" d="M 144.074219 207.023438 C 144.019531 207.023438 143.960938 207.015625 143.90625 207.007812 L 128.433594 203.621094 C 128.015625 203.53125 127.753906 203.113281 127.851562 202.703125 C 127.9375 202.285156 128.355469 202.019531 128.765625 202.117188 L 144.238281 205.503906 C 144.65625 205.59375 144.917969 206.011719 144.824219 206.421875 C 144.746094 206.78125 144.429688 207.023438 144.074219 207.023438 Z M 144.074219 207.023438 " fill-opacity="1" fill-rule="nonzero"/><path fill="#0a5b2e" d="M 143.210938 197.304688 C 143.15625 197.304688 143.097656 197.296875 143.042969 197.289062 L 129.472656 194.3125 C 129.054688 194.222656 128.792969 193.804688 128.886719 193.394531 C 128.984375 192.984375 129.394531 192.710938 129.804688 192.808594 L 143.375 195.785156 C 143.792969 195.875 144.054688 196.292969 143.960938 196.703125 C 143.890625 197.054688 143.566406 197.304688 143.210938 197.304688 Z M 143.210938 197.304688 " fill-opacity="1" fill-rule="nonzero"/><path fill="#0a5b2e" d="M 142.355469 187.578125 C 142.304688 187.578125 142.242188 187.570312 142.191406 187.5625 L 133.773438 185.71875 C 133.355469 185.632812 133.09375 185.210938 133.1875 184.800781 C 133.273438 184.382812 133.695312 184.121094 134.105469 184.214844 L 142.519531 186.058594 C 142.941406 186.144531 143.203125 186.566406 143.105469 186.976562 C 143.027344 187.332031 142.703125 187.578125 142.355469 187.578125 Z M 142.355469 187.578125 " fill-opacity="1" fill-rule="nonzero"/><path fill="#0a5b2e" d="M 143.65625 202.300781 C 143.351562 202.300781 143.0625 202.117188 142.941406 201.820312 C 142.773438 201.425781 142.964844 200.972656 143.359375 200.816406 L 157.996094 194.757812 C 158.386719 194.589844 158.839844 194.78125 159.007812 195.175781 C 159.171875 195.566406 158.980469 196.023438 158.585938 196.1875 L 143.953125 202.25 C 143.855469 202.285156 143.75 202.300781 143.65625 202.300781 Z M 143.65625 202.300781 " fill-opacity="1" fill-rule="nonzero"/><path fill="#0a5b2e" d="M 144.78125 210.796875 C 144.476562 210.796875 144.195312 210.621094 144.066406 210.324219 C 143.898438 209.933594 144.082031 209.480469 144.476562 209.3125 L 157.53125 203.820312 C 157.925781 203.65625 158.378906 203.835938 158.542969 204.230469 C 158.710938 204.625 158.527344 205.078125 158.132812 205.242188 L 145.078125 210.734375 C 144.980469 210.78125 144.886719 210.796875 144.78125 210.796875 Z M 144.78125 210.796875 " fill-opacity="1" fill-rule="nonzero"/><path fill="#0a5b2e" d="M 142.792969 192.574219 C 142.484375 192.574219 142.199219 192.390625 142.078125 192.09375 C 141.910156 191.699219 142.101562 191.246094 142.496094 191.078125 L 153.230469 186.625 C 153.625 186.460938 154.078125 186.652344 154.242188 187.046875 C 154.410156 187.4375 154.21875 187.890625 153.824219 188.058594 L 143.089844 192.503906 C 142.992188 192.554688 142.894531 192.574219 142.792969 192.574219 Z M 142.792969 192.574219 " fill-opacity="1" fill-rule="nonzero"/><path fill="#0a5b2e" d="M 141.9375 182.855469 C 141.632812 182.855469 141.34375 182.671875 141.222656 182.375 C 141.054688 181.980469 141.246094 181.527344 141.640625 181.371094 L 146.542969 179.34375 C 146.933594 179.179688 147.386719 179.371094 147.554688 179.761719 C 147.71875 180.15625 147.527344 180.609375 147.136719 180.777344 L 142.234375 182.800781 C 142.128906 182.828125 142.03125 182.855469 141.9375 182.855469 Z M 141.9375 182.855469 " fill-opacity="1" fill-rule="nonzero"/><path fill="#9ecc3b" d="M 100.515625 181.109375 C 100.515625 181.109375 118.046875 190.40625 120.609375 202.238281 C 123.175781 214.0625 108.355469 217.285156 108.355469 217.285156 C 108.355469 217.285156 93.535156 220.507812 90.972656 208.675781 C 88.40625 196.851562 100.515625 181.109375 100.515625 181.109375 Z M 100.515625 181.109375 " fill-opacity="1" fill-rule="nonzero"/><path fill="#0a5b2e" d="M 107.230469 219.023438 C 105.304688 219.269531 101.535156 219.503906 97.941406 218.351562 C 93.40625 216.902344 90.476562 213.671875 89.464844 209 C 88.320312 203.742188 89.644531 197.269531 93.40625 189.761719 C 96.144531 184.277344 99.171875 180.332031 99.292969 180.164062 C 99.753906 179.570312 100.574219 179.386719 101.238281 179.746094 C 101.421875 179.839844 105.808594 182.179688 110.570312 186.042969 C 117.09375 191.316406 120.976562 196.660156 122.121094 201.917969 C 123.3125 207.417969 121.300781 212.105469 116.308594 215.476562 C 112.726562 217.898438 108.851562 218.761719 108.6875 218.796875 C 108.652344 218.796875 108.113281 218.910156 107.230469 219.023438 Z M 100.949219 183.132812 C 98.378906 186.808594 90.464844 199.070312 92.472656 208.34375 C 93.257812 211.976562 95.351562 214.28125 98.875 215.40625 C 101.902344 216.378906 105.164062 216.167969 106.835938 215.957031 C 107.5625 215.863281 108.007812 215.773438 108.015625 215.773438 C 108.050781 215.765625 111.53125 214.980469 114.636719 212.875 C 118.507812 210.238281 120 206.773438 119.09375 202.570312 C 117.085938 193.273438 104.8125 185.402344 100.949219 183.132812 Z M 100.949219 183.132812 " fill-opacity="1" fill-rule="nonzero"/><path fill="#0a5b2e" d="M 110.308594 225.878906 C 109.523438 225.972656 108.78125 225.46875 108.617188 224.683594 L 99.003906 181.449219 C 98.820312 180.617188 99.34375 179.789062 100.175781 179.605469 C 101.003906 179.421875 101.832031 179.945312 102.015625 180.777344 L 111.625 224.007812 C 111.808594 224.839844 111.285156 225.667969 110.457031 225.851562 C 110.40625 225.859375 110.363281 225.871094 110.308594 225.878906 Z M 110.308594 225.878906 " fill-opacity="1" fill-rule="nonzero"/><path fill="#0a5b2e" d="M 107.144531 212.011719 C 107.089844 212.019531 107.03125 212.019531 106.976562 212.011719 L 91.199219 210.585938 C 90.769531 210.554688 90.464844 210.175781 90.5 209.75 C 90.535156 209.320312 90.910156 209.007812 91.339844 209.050781 L 107.109375 210.484375 C 107.535156 210.519531 107.839844 210.894531 107.804688 211.320312 C 107.78125 211.6875 107.492188 211.96875 107.144531 212.011719 Z M 107.144531 212.011719 " fill-opacity="1" fill-rule="nonzero"/><path fill="#0a5b2e" d="M 105.074219 202.476562 C 105.023438 202.484375 104.960938 202.484375 104.910156 202.476562 L 91.066406 201.21875 C 90.640625 201.183594 90.335938 200.808594 90.371094 200.378906 C 90.40625 199.953125 90.78125 199.644531 91.207031 199.679688 L 105.050781 200.9375 C 105.476562 200.972656 105.78125 201.347656 105.746094 201.777344 C 105.710938 202.144531 105.425781 202.421875 105.074219 202.476562 Z M 105.074219 202.476562 " fill-opacity="1" fill-rule="nonzero"/><path fill="#0a5b2e" d="M 103 192.929688 C 102.949219 192.941406 102.886719 192.941406 102.835938 192.929688 L 94.25 192.152344 C 93.824219 192.117188 93.519531 191.742188 93.554688 191.316406 C 93.589844 190.886719 93.964844 190.582031 94.390625 190.617188 L 102.972656 191.394531 C 103.402344 191.429688 103.707031 191.804688 103.671875 192.234375 C 103.644531 192.597656 103.359375 192.886719 103 192.929688 Z M 103 192.929688 " fill-opacity="1" fill-rule="nonzero"/><path fill="#0a5b2e" d="M 106.132812 207.375 C 105.835938 207.410156 105.519531 207.269531 105.363281 206.988281 C 105.15625 206.625 105.285156 206.152344 105.652344 205.933594 L 119.414062 198.09375 C 119.78125 197.882812 120.253906 198.011719 120.472656 198.378906 C 120.6875 198.746094 120.550781 199.21875 120.183594 199.4375 L 106.417969 207.277344 C 106.332031 207.332031 106.226562 207.367188 106.132812 207.375 Z M 106.132812 207.375 " fill-opacity="1" fill-rule="nonzero"/><path fill="#0a5b2e" d="M 108.3125 215.671875 C 108.015625 215.703125 107.710938 215.566406 107.542969 215.285156 C 107.335938 214.917969 107.457031 214.449219 107.824219 214.230469 L 120.097656 207.148438 C 120.460938 206.9375 120.933594 207.058594 121.152344 207.425781 C 121.359375 207.792969 121.238281 208.265625 120.871094 208.484375 L 108.601562 215.566406 C 108.503906 215.625 108.40625 215.652344 108.3125 215.671875 Z M 108.3125 215.671875 " fill-opacity="1" fill-rule="nonzero"/><path fill="#0a5b2e" d="M 104.0625 197.839844 C 103.769531 197.875 103.453125 197.734375 103.296875 197.453125 C 103.085938 197.085938 103.21875 196.617188 103.585938 196.398438 L 113.683594 190.644531 C 114.050781 190.433594 114.523438 190.566406 114.742188 190.929688 C 114.949219 191.296875 114.820312 191.769531 114.453125 191.988281 L 104.351562 197.742188 C 104.265625 197.796875 104.160156 197.820312 104.0625 197.839844 Z M 104.0625 197.839844 " fill-opacity="1" fill-rule="nonzero"/><path fill="#0a5b2e" d="M 101.996094 188.292969 C 101.699219 188.328125 101.386719 188.191406 101.230469 187.910156 C 101.019531 187.542969 101.152344 187.070312 101.515625 186.851562 L 106.121094 184.226562 C 106.488281 184.015625 106.960938 184.144531 107.179688 184.511719 C 107.386719 184.878906 107.257812 185.351562 106.890625 185.570312 L 102.285156 188.199219 C 102.199219 188.25 102.09375 188.277344 101.996094 188.292969 Z M 101.996094 188.292969 " fill-opacity="1" fill-rule="nonzero"/><path fill="#9dcb3c" d="M 163.289062 218.796875 L 165.671875 195.113281 L 201.640625 169.992188 L 231.558594 197.585938 L 230.90625 222.289062 C 230.90625 222.289062 196.964844 219.40625 163.289062 218.796875 Z M 163.289062 218.796875 " fill-opacity="1" fill-rule="nonzero"/><path fill="#0a5b2e" d="M 230.90625 223.835938 C 230.859375 223.835938 230.816406 223.835938 230.773438 223.824219 C 230.433594 223.800781 196.503906 220.945312 163.261719 220.332031 C 162.835938 220.324219 162.425781 220.140625 162.136719 219.816406 C 161.851562 219.496094 161.710938 219.066406 161.753906 218.640625 L 164.136719 194.957031 C 164.179688 194.511719 164.414062 194.101562 164.789062 193.847656 L 200.761719 168.726562 C 201.351562 168.316406 202.15625 168.367188 202.6875 168.855469 L 232.605469 196.449219 C 232.9375 196.757812 233.113281 197.183594 233.101562 197.628906 L 232.449219 222.332031 C 232.441406 222.761719 232.246094 223.164062 231.933594 223.441406 C 231.644531 223.695312 231.28125 223.835938 230.90625 223.835938 Z M 164.988281 217.285156 C 193.632812 217.871094 222.355469 220.0625 229.394531 220.621094 L 229.988281 198.25 L 201.5 171.972656 L 167.125 195.980469 Z M 164.988281 217.285156 " fill-opacity="1" fill-rule="nonzero"/><path fill="#d4de25" d="M 195.449219 219.382812 C 195.449219 219.382812 152.117188 220.707031 105.589844 267.941406 C 72.8125 257.28125 59.1875 255.042969 59.1875 255.042969 C 59.1875 255.042969 80.285156 232.382812 112.0625 225.886719 C 143.855469 219.382812 180.925781 216.265625 195.449219 219.382812 Z M 195.449219 219.382812 " fill-opacity="1" fill-rule="nonzero"/><path fill="#d4de25" d="M 201.640625 219.574219 C 201.640625 219.574219 147.308594 224.5 112.832031 269.558594 C 145.53125 300.695312 230.859375 352.933594 230.859375 352.933594 C 230.859375 352.933594 328.289062 307.96875 342.273438 256.695312 C 272.832031 222.289062 201.640625 219.574219 201.640625 219.574219 Z M 201.640625 219.574219 " fill-opacity="1" fill-rule="nonzero"/><path fill="#ffffff" d="M 206.691406 302.652344 C 206.527344 302.652344 206.359375 302.601562 206.21875 302.496094 C 199.539062 297.351562 191.375 292.339844 181.953125 287.605469 C 174.410156 283.816406 166.046875 280.191406 157.097656 276.839844 C 141.859375 271.128906 130.066406 268.140625 129.945312 268.117188 C 129.535156 268.011719 129.28125 267.59375 129.386719 267.183594 C 129.488281 266.769531 129.910156 266.519531 130.320312 266.621094 C 130.441406 266.648438 142.3125 269.652344 157.636719 275.398438 C 166.636719 278.769531 175.054688 282.417969 182.652344 286.234375 C 192.160156 291.011719 200.410156 296.078125 207.171875 301.28125 C 207.511719 301.542969 207.574219 302.023438 207.3125 302.363281 C 207.152344 302.554688 206.925781 302.652344 206.691406 302.652344 Z M 206.691406 302.652344 " fill-opacity="1" fill-rule="nonzero"/><path fill="#ffffff" d="M 225.472656 290.375 C 225.304688 290.375 225.148438 290.324219 225.007812 290.21875 C 217.339844 284.402344 208.332031 278.917969 198.238281 273.933594 C 190.152344 269.933594 181.351562 266.238281 172.082031 262.957031 C 156.675781 257.488281 145.058594 254.972656 144.40625 254.835938 C 143.472656 254.710938 121.402344 251.898438 109.664062 254.1875 C 109.246094 254.265625 108.84375 253.996094 108.757812 253.578125 C 108.679688 253.15625 108.949219 252.757812 109.367188 252.667969 C 114.488281 251.664062 121.988281 251.472656 131.644531 252.082031 C 138.8125 252.539062 144.570312 253.296875 144.632812 253.296875 C 144.648438 253.296875 144.667969 253.304688 144.691406 253.304688 C 144.816406 253.332031 156.710938 255.855469 172.597656 261.488281 C 181.921875 264.796875 190.773438 268.507812 198.917969 272.535156 C 209.109375 277.566406 218.195312 283.101562 225.941406 288.976562 C 226.28125 289.238281 226.351562 289.71875 226.089844 290.058594 C 225.933594 290.269531 225.707031 290.375 225.472656 290.375 Z M 225.472656 290.375 " fill-opacity="1" fill-rule="nonzero"/><path fill="#ffffff" d="M 246.222656 280.097656 C 246.046875 280.097656 245.882812 280.035156 245.734375 279.921875 C 236.730469 272.578125 226.140625 265.792969 214.246094 259.75 C 204.71875 254.914062 194.339844 250.546875 183.410156 246.765625 C 165.207031 240.476562 151.445312 237.921875 150.683594 237.78125 C 149.628906 237.683594 124.5 235.519531 108.03125 239.027344 C 107.613281 239.117188 107.203125 238.855469 107.117188 238.433594 C 107.03125 238.015625 107.292969 237.605469 107.710938 237.519531 C 112.613281 236.46875 121.457031 235.273438 135.734375 235.5 C 144.265625 235.640625 150.789062 236.234375 150.859375 236.234375 C 150.878906 236.234375 150.902344 236.242188 150.921875 236.242188 C 151.058594 236.269531 165.136719 238.8125 183.882812 245.28125 C 194.890625 249.078125 205.332031 253.480469 214.925781 258.34375 C 226.925781 264.429688 237.621094 271.285156 246.710938 278.699219 C 247.042969 278.96875 247.09375 279.460938 246.824219 279.78125 C 246.675781 280 246.449219 280.097656 246.222656 280.097656 Z M 246.222656 280.097656 " fill-opacity="1" fill-rule="nonzero"/><path fill="#ffffff" d="M 269.703125 270.238281 C 269.527344 270.238281 269.363281 270.175781 269.214844 270.0625 C 259.496094 262.132812 248.53125 254.878906 236.644531 248.519531 C 227.128906 243.429688 216.992188 238.890625 206.515625 235.03125 C 188.695312 228.453125 175.9375 226.105469 175.8125 226.085938 C 175.734375 226.070312 168.871094 224.777344 158.132812 224.28125 C 148.234375 223.824219 132.910156 223.972656 116.160156 227.285156 C 115.742188 227.371094 115.34375 227.09375 115.253906 226.671875 C 115.175781 226.253906 115.445312 225.851562 115.867188 225.765625 C 132.777344 222.421875 148.242188 222.273438 158.246094 222.734375 C 169.089844 223.242188 176.03125 224.550781 176.101562 224.566406 C 176.222656 224.585938 189.117188 226.960938 207.058594 233.578125 C 217.59375 237.464844 227.800781 242.03125 237.375 247.160156 C 249.359375 253.566406 260.402344 260.878906 270.199219 268.867188 C 270.53125 269.136719 270.582031 269.625 270.3125 269.949219 C 270.148438 270.140625 269.929688 270.238281 269.703125 270.238281 Z M 269.703125 270.238281 " fill-opacity="1" fill-rule="nonzero"/><path fill="#ffffff" d="M 301.015625 262.257812 C 300.839844 262.257812 300.667969 262.195312 300.519531 262.074219 C 291.664062 254.5625 281.703125 247.753906 270.921875 241.839844 C 262.296875 237.109375 253.121094 232.941406 243.65625 229.441406 C 227.546875 223.496094 216.066406 221.546875 215.953125 221.53125 C 215.535156 221.460938 215.25 221.058594 215.316406 220.640625 C 215.386719 220.21875 215.78125 219.929688 216.207031 220 C 220.203125 220.664062 231.203125 223.1875 244.199219 227.992188 C 253.730469 231.511719 262.976562 235.71875 271.671875 240.488281 C 282.550781 246.453125 292.589844 253.316406 301.519531 260.894531 C 301.84375 261.175781 301.886719 261.65625 301.609375 261.984375 C 301.453125 262.160156 301.234375 262.257812 301.015625 262.257812 Z M 301.015625 262.257812 " fill-opacity="1" fill-rule="nonzero"/><path fill="#0a5b2e" d="M 215.179688 296.6875 C 206.140625 290.269531 196.292969 284.515625 185.898438 279.5625 C 177.578125 275.601562 168.890625 272.152344 160.078125 269.304688 C 145.066406 264.449219 134.765625 263.023438 134.664062 263.007812 L 135.070312 259.941406 C 135.5 260.003906 145.6875 261.410156 160.941406 266.335938 C 169.890625 269.226562 178.71875 272.726562 187.171875 276.753906 C 197.742188 281.78125 207.765625 287.640625 216.957031 294.164062 Z M 215.179688 296.6875 " fill-opacity="1" fill-rule="nonzero"/><path fill="#0a5b2e" d="M 234.679688 285.207031 C 218.875 273.257812 202.480469 263.847656 185.949219 257.21875 C 172.734375 251.917969 159.398438 248.382812 146.324219 246.695312 C 134.6875 245.203125 125.40625 245.480469 119.675781 245.980469 C 113.457031 246.519531 109.953125 247.429688 109.917969 247.4375 L 109.132812 244.453125 C 109.28125 244.417969 112.839844 243.480469 119.257812 242.914062 C 125.136719 242.390625 134.636719 242.09375 146.542969 243.605469 C 159.894531 245.308594 173.503906 248.90625 186.988281 254.292969 C 203.8125 261.027344 220.492188 270.597656 236.546875 282.726562 Z M 234.679688 285.207031 " fill-opacity="1" fill-rule="nonzero"/><path fill="#0a5b2e" d="M 255.648438 275.484375 C 237.410156 261.027344 218.203125 249.917969 198.5625 242.46875 C 182.863281 236.515625 166.847656 232.871094 150.957031 231.640625 C 136.816406 230.550781 125.398438 231.605469 118.316406 232.6875 C 110.632812 233.859375 106.234375 235.308594 106.191406 235.328125 L 105.214844 232.402344 C 105.398438 232.339844 109.820312 230.871094 117.707031 229.660156 C 124.945312 228.550781 136.597656 227.449219 151.023438 228.550781 C 167.222656 229.789062 183.542969 233.484375 199.539062 239.542969 C 219.511719 247.105469 239.035156 258.386719 257.558594 273.074219 Z M 255.648438 275.484375 " fill-opacity="1" fill-rule="nonzero"/><path fill="#0a5b2e" d="M 284.90625 265.933594 C 275.859375 258.457031 265.339844 251.671875 253.625 245.777344 C 244.242188 241.054688 234.078125 236.878906 223.421875 233.378906 C 205.277344 227.414062 191.855469 225.441406 191.722656 225.425781 L 192.160156 222.367188 C 192.300781 222.386719 205.984375 224.394531 224.378906 230.445312 C 235.1875 234 245.488281 238.226562 255.011719 243.019531 C 266.929688 249.019531 277.648438 255.933594 286.867188 263.550781 Z M 284.90625 265.933594 " fill-opacity="1" fill-rule="nonzero"/><path fill="#f15e22" d="M 216.066406 220.5 C 216.066406 220.5 169.183594 220.5 122.433594 274.464844 L 103.636719 266.5625 C 103.636719 266.5625 135.867188 225.546875 191.941406 217.488281 Z M 216.066406 220.5 " fill-opacity="1" fill-rule="nonzero"/><path fill="#ffffff" d="M 122.007812 276.699219 C 121.804688 276.699219 121.605469 276.664062 121.414062 276.578125 L 102.609375 268.675781 C 102.179688 268.492188 101.855469 268.132812 101.726562 267.6875 C 101.597656 267.242188 101.675781 266.761719 101.9375 266.378906 C 102.222656 265.960938 109.140625 255.960938 123.085938 244.835938 C 131.269531 238.3125 140.167969 232.769531 149.542969 228.367188 C 161.265625 222.855469 173.773438 219.128906 186.71875 217.269531 C 187.5625 217.144531 188.339844 217.730469 188.460938 218.578125 C 188.582031 219.425781 188 220.203125 187.152344 220.324219 C 174.515625 222.140625 162.304688 225.78125 150.851562 231.160156 C 141.691406 235.464844 132.996094 240.878906 125.007812 247.253906 C 114.566406 255.585938 108.085938 263.390625 105.617188 266.597656 L 121.578125 273.304688 C 132.105469 261.269531 143.304688 250.921875 154.878906 242.539062 C 164.371094 235.667969 174.140625 230.097656 183.910156 225.984375 C 200.621094 218.9375 211.453125 218.59375 211.90625 218.578125 C 212.761719 218.550781 213.46875 219.234375 213.484375 220.078125 C 213.503906 220.9375 212.832031 221.644531 211.984375 221.660156 C 211.960938 221.660156 209.273438 221.738281 204.617188 222.671875 C 200.316406 223.527344 193.417969 225.308594 184.929688 228.898438 C 175.394531 232.933594 165.851562 238.390625 156.574219 245.125 C 144.964844 253.542969 133.730469 263.984375 123.175781 276.167969 C 122.871094 276.507812 122.441406 276.699219 122.007812 276.699219 Z M 122.007812 276.699219 " fill-opacity="1" fill-rule="nonzero"/><path fill="#0a5b2e" d="M 282.054688 231.640625 C 262.828125 226.027344 243.222656 221.976562 223.769531 219.609375 C 209.675781 217.898438 195.554688 217.039062 181.476562 217.039062 C 162.835938 217.039062 144.265625 218.542969 125.949219 221.546875 C 113.320312 223.617188 100.777344 226.410156 88.667969 229.859375 C 78.980469 232.621094 69.550781 235.796875 60.636719 239.308594 C 45.421875 245.296875 37.109375 250.101562 36.769531 250.3125 L 38.324219 252.984375 C 38.410156 252.929688 46.84375 248.058594 61.882812 242.144531 C 70.710938 238.671875 80.058594 235.527344 89.65625 232.804688 C 101.648438 229.398438 114.078125 226.628906 126.59375 224.585938 C 158.4375 219.382812 191.042969 218.742188 223.5 222.707031 C 242.765625 225.058594 262.199219 229.074219 281.25 234.644531 C 302.210938 240.773438 323.230469 248.929688 343.730469 258.902344 L 345.082031 256.125 C 324.398438 246.050781 303.195312 237.816406 282.054688 231.640625 Z M 282.054688 231.640625 " fill-opacity="1" fill-rule="nonzero"/><path fill="#0a5b2e" d="M 315.074219 259.15625 L 316.0625 257.96875 Z M 315.074219 259.15625 C 314.996094 259.097656 308.402344 253.601562 297.710938 247.054688 C 291.429688 243.210938 284.976562 239.761719 278.546875 236.792969 C 270.511719 233.101562 262.480469 230.15625 254.671875 228.042969 L 255.476562 225.058594 C 263.464844 227.214844 271.671875 230.21875 279.871094 234 C 286.421875 237.019531 292.992188 240.53125 299.375 244.441406 C 310.261719 251.105469 316.792969 256.546875 317.0625 256.773438 Z M 315.074219 259.15625 " fill-opacity="1" fill-rule="nonzero"/><path fill="#9ecc3b" d="M 207.320312 356.574219 C 149.332031 251.785156 37.546875 252.957031 37.546875 252.957031 C 37.546875 252.957031 50.230469 297.140625 102.972656 331.808594 C 152.167969 364.136719 207.320312 356.574219 207.320312 356.574219 Z M 207.320312 356.574219 " fill-opacity="1" fill-rule="nonzero"/><path fill="#0a5b2e" d="M 192.492188 358.886719 C 192.484375 358.886719 192.484375 358.886719 192.492188 358.886719 C 183.253906 358.886719 168.835938 358.101562 152.558594 354.339844 C 134.035156 350.058594 117.070312 342.917969 102.136719 333.101562 C 90.011719 325.128906 78.996094 315.996094 69.394531 305.9375 C 61.707031 297.882812 54.914062 289.230469 49.191406 280.21875 C 39.421875 264.832031 36.203125 253.847656 36.074219 253.394531 C 35.941406 252.929688 36.03125 252.433594 36.316406 252.046875 C 36.605469 251.664062 37.058594 251.429688 37.539062 251.429688 C 37.539062 251.429688 37.601562 251.429688 37.714844 251.429688 C 39.125 251.429688 46.75 251.515625 58.4375 253.21875 C 73.746094 255.453125 88.921875 259.382812 103.550781 264.894531 C 123.742188 272.507812 142.234375 282.953125 158.519531 295.945312 C 178.738281 312.082031 195.613281 332.238281 208.679688 355.839844 C 208.925781 356.285156 208.941406 356.828125 208.707031 357.28125 C 208.480469 357.734375 208.042969 358.050781 207.539062 358.121094 C 207.300781 358.136719 201.71875 358.886719 192.492188 358.886719 Z M 39.691406 254.527344 C 41.0625 258.363281 44.671875 267.375 51.851562 278.664062 C 57.46875 287.492188 64.132812 295.972656 71.679688 303.859375 C 81.097656 313.714844 91.914062 322.683594 103.820312 330.507812 C 118.449219 340.121094 135.082031 347.125 153.25 351.328125 C 169.246094 355.019531 183.421875 355.796875 192.492188 355.796875 C 198.117188 355.796875 202.398438 355.507812 204.832031 355.28125 C 192.132812 332.910156 175.910156 313.761719 156.589844 298.347656 C 140.558594 285.554688 122.347656 275.269531 102.460938 267.765625 C 88.042969 262.328125 73.074219 258.457031 57.984375 256.257812 C 49.242188 254.984375 42.859375 254.625 39.691406 254.527344 Z M 39.691406 254.527344 " fill-opacity="1" fill-rule="nonzero"/><path fill="#9ecc3b" d="M 342.855469 257.988281 C 242.75 257.027344 183.253906 321.890625 183.253906 321.890625 C 183.253906 321.890625 198.738281 340.566406 207.328125 356.574219 C 240.289062 354.207031 265.757812 341.710938 292.910156 322.371094 C 326.058594 298.757812 342.855469 257.988281 342.855469 257.988281 Z M 342.855469 257.988281 " fill-opacity="1" fill-rule="nonzero"/><path fill="#0a5b2e" d="M 207.320312 358.121094 C 206.753906 358.121094 206.230469 357.804688 205.957031 357.308594 C 197.542969 341.617188 182.214844 323.070312 182.058594 322.875 C 181.570312 322.28125 181.589844 321.417969 182.113281 320.84375 C 182.261719 320.675781 185.921875 316.710938 192.953125 310.722656 C 199.425781 305.210938 210.074219 296.90625 224.117188 288.601562 C 239.898438 279.265625 256.652344 271.820312 273.921875 266.484375 C 295.511719 259.8125 317.960938 256.433594 340.648438 256.433594 C 341.382812 256.433594 342.132812 256.433594 342.863281 256.441406 C 343.378906 256.449219 343.851562 256.703125 344.136719 257.132812 C 344.417969 257.558594 344.46875 258.101562 344.277344 258.570312 C 344.105469 258.992188 339.933594 269.042969 331.613281 282.148438 C 326.730469 289.851562 321.425781 296.984375 315.859375 303.359375 C 308.882812 311.351562 301.460938 318.167969 293.800781 323.617188 C 278.773438 334.324219 265.769531 341.835938 252.886719 347.25 C 238.242188 353.40625 223.378906 356.957031 207.425781 358.101562 C 207.398438 358.113281 207.355469 358.121094 207.320312 358.121094 Z M 185.3125 321.96875 C 188.644531 326.089844 200.761719 341.390625 208.199219 354.949219 C 223.429688 353.753906 237.671875 350.304688 251.699219 344.402344 C 264.363281 339.074219 277.175781 331.667969 292.011719 321.105469 C 299.460938 315.792969 306.703125 309.148438 313.503906 301.359375 C 318.964844 295.109375 324.171875 288.105469 328.96875 280.550781 C 334.953125 271.128906 338.828125 263.164062 340.492188 259.515625 C 318.171875 259.53125 296.078125 262.867188 274.839844 269.433594 C 257.804688 274.699219 241.265625 282.042969 225.6875 291.257812 C 202.941406 304.730469 188.90625 318.308594 185.3125 321.96875 Z M 185.3125 321.96875 " fill-opacity="1" fill-rule="nonzero"/><path fill="#0b5b2f" d="M 193.476562 335.703125 C 193.058594 335.703125 192.640625 335.53125 192.335938 335.199219 C 191.765625 334.558594 191.8125 333.589844 192.449219 333.015625 C 199.199219 326.917969 259.375 274.472656 329.371094 274.472656 C 330.792969 274.472656 332.222656 274.492188 333.652344 274.542969 C 334.507812 274.570312 335.171875 275.285156 335.144531 276.132812 C 335.121094 276.988281 334.40625 277.652344 333.558594 277.625 C 332.152344 277.582031 330.75 277.566406 329.355469 277.566406 C 260.515625 277.566406 201.171875 329.304688 194.515625 335.3125 C 194.21875 335.574219 193.84375 335.703125 193.476562 335.703125 Z M 193.476562 335.703125 " fill-opacity="1" fill-rule="nonzero"/><path fill="#ffffff" d="M 206.550781 313.070312 C 206.332031 313.070312 206.117188 312.972656 205.957031 312.800781 C 205.6875 312.476562 205.722656 311.988281 206.054688 311.707031 C 206.195312 311.585938 220.535156 299.605469 243.917969 288.070312 C 257.65625 281.300781 271.785156 276 285.917969 272.324219 C 303.597656 267.730469 321.320312 265.671875 338.617188 266.203125 C 339.042969 266.222656 339.375 266.570312 339.367188 267 C 339.359375 267.417969 339.007812 267.75 338.601562 267.75 C 338.589844 267.75 338.582031 267.75 338.574219 267.75 C 321.433594 267.214844 303.859375 269.261719 286.335938 273.808594 C 272.308594 277.449219 258.277344 282.707031 244.640625 289.433594 C 232.5 295.414062 222.933594 301.472656 217.035156 305.5 C 210.644531 309.867188 207.082031 312.851562 207.050781 312.886719 C 206.910156 313.007812 206.734375 313.070312 206.550781 313.070312 Z M 206.550781 313.070312 " fill-opacity="1" fill-rule="nonzero"/><path fill="#0b5b2f" d="M 203.183594 350.355469 C 202.773438 350.355469 202.363281 350.191406 202.058594 349.867188 C 201.476562 349.246094 201.511719 348.269531 202.136719 347.683594 C 202.269531 347.5625 205.496094 344.558594 211.394531 339.914062 C 216.816406 335.644531 225.601562 329.128906 236.679688 322.386719 C 249.125 314.808594 261.871094 308.476562 274.550781 303.570312 C 290.425781 297.429688 306.25 293.527344 321.582031 291.964844 C 322.429688 291.875 323.1875 292.496094 323.273438 293.34375 C 323.363281 294.191406 322.742188 294.949219 321.894531 295.039062 C 306.832031 296.574219 291.28125 300.417969 275.660156 306.449219 C 263.152344 311.289062 250.574219 317.542969 238.273438 325.023438 C 217.339844 337.773438 204.371094 349.824219 204.242188 349.9375 C 203.933594 350.226562 203.558594 350.355469 203.183594 350.355469 Z M 203.183594 350.355469 " fill-opacity="1" fill-rule="nonzero"/><path fill="#0b5b2f" d="M 223.472656 355.746094 C 222.75 355.746094 222.113281 355.238281 221.964844 354.503906 C 221.824219 353.796875 222.183594 353.117188 222.800781 352.8125 C 223.011719 352.664062 223.605469 352.199219 224.222656 351.703125 C 227.695312 348.953125 236.90625 341.632812 250.023438 334.105469 C 266.492188 324.667969 283.34375 318.101562 300.125 314.597656 C 300.960938 314.421875 301.773438 314.957031 301.949219 315.792969 C 302.121094 316.632812 301.589844 317.445312 300.753906 317.621094 C 284.292969 321.050781 267.75 327.496094 251.558594 336.777344 C 238.640625 344.183594 229.5625 351.394531 226.132812 354.113281 C 224.433594 355.464844 224.25 355.605469 223.777344 355.703125 C 223.675781 355.734375 223.578125 355.746094 223.472656 355.746094 Z M 223.472656 355.746094 " fill-opacity="1" fill-rule="nonzero"/><path fill="#0b5b2f" d="M 187.136719 358.886719 C 186.613281 358.886719 186.105469 358.625 185.820312 358.144531 C 185.785156 358.09375 182.601562 352.863281 176.53125 345.101562 C 170.929688 337.941406 161.65625 327.085938 149.289062 316.066406 C 135.402344 303.699219 120.523438 293.640625 105.066406 286.175781 C 85.765625 276.855469 65.492188 271.566406 44.8125 270.457031 C 43.957031 270.414062 43.3125 269.679688 43.355469 268.832031 C 43.398438 267.976562 44.125 267.332031 44.980469 267.375 C 66.085938 268.507812 86.777344 273.914062 106.460938 283.425781 C 122.1875 291.03125 137.3125 301.253906 151.417969 313.828125 C 163.953125 325.007812 173.347656 336.011719 179.023438 343.273438 C 185.183594 351.160156 188.332031 356.339844 188.460938 356.546875 C 188.90625 357.273438 188.671875 358.226562 187.945312 358.671875 C 187.683594 358.820312 187.40625 358.886719 187.136719 358.886719 Z M 187.136719 358.886719 " fill-opacity="1" fill-rule="nonzero"/><path fill="#0b5b2f" d="M 164.125 356.671875 C 163.664062 356.671875 163.203125 356.460938 162.898438 356.058594 C 162.773438 355.902344 151.863281 341.652344 133.25 326.28125 C 122.335938 317.269531 110.945312 309.636719 99.398438 303.605469 C 84.996094 296.078125 70.300781 291.011719 55.734375 288.574219 C 54.894531 288.4375 54.328125 287.640625 54.46875 286.792969 C 54.609375 285.957031 55.402344 285.390625 56.25 285.527344 C 71.15625 288.027344 86.164062 293.195312 100.878906 300.886719 C 112.628906 307.035156 124.203125 314.800781 135.289062 323.960938 C 154.164062 339.554688 165.25 354.050781 165.363281 354.191406 C 165.878906 354.871094 165.75 355.839844 165.070312 356.355469 C 164.78125 356.566406 164.449219 356.671875 164.125 356.671875 Z M 164.125 356.671875 " fill-opacity="1" fill-rule="nonzero"/><path fill="#0b5b2f" d="M 132.683594 348.199219 C 132.210938 348.199219 131.757812 347.992188 131.453125 347.589844 C 129.917969 345.5625 125.171875 340.253906 118.167969 334.675781 C 113.03125 330.585938 107.449219 326.917969 101.578125 323.792969 C 94.242188 319.882812 86.425781 316.796875 78.359375 314.617188 C 77.539062 314.398438 77.050781 313.550781 77.269531 312.722656 C 77.488281 311.898438 78.34375 311.410156 79.160156 311.628906 C 87.484375 313.875 95.535156 317.0625 103.097656 321.105469 C 109.140625 324.335938 114.898438 328.105469 120.183594 332.332031 C 129.21875 339.539062 133.738281 345.484375 133.921875 345.730469 C 134.433594 346.410156 134.296875 347.378906 133.617188 347.894531 C 133.328125 348.105469 133.003906 348.199219 132.683594 348.199219 Z M 132.683594 348.199219 " fill-opacity="1" fill-rule="nonzero"/><path fill="#9ecc3b" d="M 59.980469 255.140625 L 65.789062 235.039062 L 96.640625 216.296875 L 110.054688 247.195312 L 104.875 266.570312 C 104.875 266.570312 82.492188 258.457031 60.878906 255.296875 Z M 59.980469 255.140625 " fill-opacity="1" fill-rule="nonzero"/><path fill="#0a5b2e" d="M 104.875 268.109375 C 104.699219 268.109375 104.519531 268.074219 104.351562 268.011719 C 104.125 267.933594 81.867188 259.90625 60.652344 256.816406 C 60.644531 256.816406 60.636719 256.816406 60.625 256.816406 L 59.726562 256.667969 C 59.292969 256.597656 58.910156 256.34375 58.671875 255.96875 C 58.4375 255.59375 58.375 255.140625 58.5 254.710938 L 64.308594 234.609375 C 64.414062 234.234375 64.65625 233.921875 64.988281 233.71875 L 95.839844 214.980469 C 96.222656 214.753906 96.683594 214.691406 97.105469 214.832031 C 97.53125 214.960938 97.871094 215.277344 98.054688 215.6875 L 111.46875 246.574219 C 111.609375 246.898438 111.636719 247.253906 111.546875 247.585938 L 106.367188 266.964844 C 106.253906 267.382812 105.972656 267.730469 105.589844 267.933594 C 105.371094 268.054688 105.121094 268.109375 104.875 268.109375 Z M 61.953125 253.890625 C 79.921875 256.625 98.394531 262.695312 103.820312 264.5625 L 108.433594 247.316406 L 95.933594 218.550781 L 67.109375 236.058594 Z M 61.953125 253.890625 " fill-opacity="1" fill-rule="nonzero"/><path fill="#9ecc3b" d="M 31.519531 234.785156 L 66.210938 234.785156 L 96.640625 216.308594 L 47.902344 218.980469 L 30.507812 229.511719 Z M 31.519531 234.785156 " fill-opacity="1" fill-rule="nonzero"/><path fill="#9ecc3b" d="M 65.789062 235.039062 L 31.519531 234.785156 C 31.519531 234.785156 36.246094 249.925781 38.253906 252.957031 C 52.996094 254.136719 59.980469 255.140625 59.980469 255.140625 Z M 65.789062 235.039062 " fill-opacity="1" fill-rule="nonzero"/><path fill="#0a5b2e" d="M 59.980469 256.6875 C 59.910156 256.6875 59.832031 256.675781 59.761719 256.667969 C 59.695312 256.660156 52.644531 255.65625 38.132812 254.492188 C 37.660156 254.457031 37.226562 254.207031 36.964844 253.804688 C 34.90625 250.6875 30.542969 236.820312 30.054688 235.246094 C 29.90625 234.777344 29.992188 234.261719 30.289062 233.867188 C 30.578125 233.476562 31.039062 233.238281 31.527344 233.238281 L 31.539062 233.238281 L 65.808594 233.492188 C 66.289062 233.492188 66.742188 233.726562 67.027344 234.113281 C 67.316406 234.496094 67.402344 235.003906 67.273438 235.464844 L 61.464844 255.578125 C 61.273438 256.242188 60.660156 256.6875 59.980469 256.6875 Z M 39.1875 251.488281 C 49.75 252.34375 56.25 253.105469 58.863281 253.4375 L 63.742188 236.566406 L 33.632812 236.339844 C 35.121094 240.941406 37.730469 248.6875 39.1875 251.488281 Z M 39.1875 251.488281 " fill-opacity="1" fill-rule="nonzero"/><path fill="#ffffff" d="M 78.558594 258.789062 C 78.558594 258.789062 81.933594 244.976562 88.234375 246.84375 C 94.523438 248.714844 89.714844 261.488281 89.714844 261.488281 C 89.714844 261.488281 82.78125 259.671875 78.558594 258.789062 Z M 78.558594 258.789062 " fill-opacity="1" fill-rule="nonzero"/><path fill="#0b5b2f" d="M 89.714844 263.023438 C 89.585938 263.023438 89.453125 263.007812 89.324219 262.972656 C 89.253906 262.957031 82.378906 261.164062 78.246094 260.292969 C 77.835938 260.203125 77.476562 259.960938 77.261719 259.601562 C 77.035156 259.246094 76.964844 258.816406 77.070312 258.414062 C 77.101562 258.285156 77.863281 255.191406 79.34375 252.058594 C 81.527344 247.445312 84.125 245.117188 87.074219 245.117188 C 87.605469 245.117188 88.136719 245.195312 88.667969 245.351562 C 90.214844 245.804688 91.40625 246.828125 92.140625 248.285156 C 93.160156 250.335938 93.292969 253.304688 92.53125 257.097656 C 91.992188 259.785156 91.199219 261.925781 91.164062 262.011719 C 90.929688 262.640625 90.34375 263.023438 89.714844 263.023438 Z M 80.488281 257.628906 C 83.382812 258.285156 86.828125 259.148438 88.710938 259.628906 C 89.550781 256.894531 90.597656 252.136719 89.375 249.664062 C 89.027344 248.957031 88.519531 248.53125 87.796875 248.3125 C 87.542969 248.242188 87.308594 248.199219 87.074219 248.199219 C 84.210938 248.207031 81.675781 253.820312 80.488281 257.628906 Z M 80.488281 257.628906 " fill-opacity="1" fill-rule="nonzero"/><path fill="#ffffff" d="M 220.96875 325.398438 C 220.734375 325.398438 220.5 325.285156 220.34375 325.078125 C 220.089844 324.726562 220.167969 324.246094 220.515625 324.003906 C 220.65625 323.898438 234.996094 313.601562 255.308594 303.578125 C 267.242188 297.691406 278.878906 293.046875 289.894531 289.773438 C 303.683594 285.675781 316.539062 283.730469 328.097656 283.992188 C 328.527344 284 328.855469 284.359375 328.847656 284.777344 C 328.839844 285.207031 328.492188 285.546875 328.0625 285.527344 C 316.671875 285.273438 303.980469 287.195312 290.347656 291.238281 C 279.417969 294.488281 267.871094 299.089844 256.015625 304.941406 C 235.816406 314.902344 221.5625 325.136719 221.421875 325.242188 C 221.285156 325.355469 221.128906 325.398438 220.96875 325.398438 Z M 220.96875 325.398438 " fill-opacity="1" fill-rule="nonzero"/><path fill="#ffffff" d="M 232.328125 337.871094 C 232.089844 337.871094 231.855469 337.765625 231.707031 337.554688 C 231.453125 337.214844 231.523438 336.726562 231.863281 336.472656 C 234.960938 334.160156 243.859375 328.246094 255.363281 322.429688 C 263.804688 318.160156 272.414062 314.539062 280.953125 311.65625 C 291.636719 308.050781 302.246094 305.59375 312.476562 304.371094 C 312.902344 304.320312 313.277344 304.625 313.332031 305.046875 C 313.382812 305.464844 313.078125 305.847656 312.660156 305.902344 C 302.53125 307.113281 292.03125 309.542969 281.441406 313.113281 C 272.972656 315.976562 264.425781 319.574219 256.050781 323.800781 C 241.789062 331.007812 232.867188 337.632812 232.78125 337.703125 C 232.648438 337.828125 232.492188 337.871094 232.328125 337.871094 Z M 232.328125 337.871094 " fill-opacity="1" fill-rule="nonzero"/><path fill="#ffffff" d="M 241.546875 350.636719 C 241.292969 350.636719 241.039062 350.515625 240.890625 350.277344 C 240.664062 349.921875 240.769531 349.441406 241.128906 349.214844 C 241.1875 349.167969 247.609375 345.082031 255.824219 340.601562 C 266.882812 334.570312 275.773438 330.71875 282.246094 329.164062 C 282.65625 329.066406 283.074219 329.320312 283.179688 329.730469 C 283.273438 330.140625 283.019531 330.5625 282.609375 330.664062 C 267.46875 334.296875 242.21875 350.347656 241.964844 350.515625 C 241.832031 350.601562 241.695312 350.636719 241.546875 350.636719 Z M 241.546875 350.636719 " fill-opacity="1" fill-rule="nonzero"/><path fill="#ffffff" d="M 197 358.121094 C 196.730469 358.121094 196.46875 357.980469 196.328125 357.71875 C 196.292969 357.65625 193.03125 351.796875 186.65625 343.136719 C 180.777344 335.144531 170.964844 323.070312 157.621094 310.914062 C 142.632812 297.257812 126.339844 286.289062 109.191406 278.308594 C 87.769531 268.335938 64.9375 263.023438 41.324219 262.527344 C 40.898438 262.519531 40.554688 262.167969 40.566406 261.742188 C 40.574219 261.3125 40.921875 260.972656 41.351562 260.980469 C 65.179688 261.488281 88.234375 266.851562 109.863281 276.917969 C 127.160156 284.96875 143.585938 296.035156 158.691406 309.804688 C 172.125 322.046875 182 334.210938 187.921875 342.261719 C 194.339844 350.996094 197.636719 356.914062 197.671875 356.976562 C 197.882812 357.351562 197.742188 357.824219 197.367188 358.023438 C 197.253906 358.085938 197.132812 358.121094 197 358.121094 Z M 197 358.121094 " fill-opacity="1" fill-rule="nonzero"/><path fill="#ffffff" d="M 175.175781 357.34375 C 174.914062 357.34375 174.671875 357.210938 174.523438 356.976562 C 174.496094 356.933594 171.777344 352.566406 166.535156 346.007812 C 161.703125 339.957031 153.667969 330.753906 142.878906 321.269531 C 130.753906 310.617188 117.679688 301.789062 104.011719 295.019531 C 86.941406 286.566406 68.90625 281.335938 50.394531 279.460938 C 49.96875 279.414062 49.664062 279.039062 49.707031 278.613281 C 49.75 278.183594 50.125 277.878906 50.550781 277.921875 C 69.253906 279.816406 87.484375 285.101562 104.726562 293.648438 C 118.515625 300.476562 131.707031 309.394531 143.933594 320.144531 C 154.8125 329.707031 162.898438 338.980469 167.773438 345.082031 C 173.058594 351.703125 175.804688 356.121094 175.832031 356.164062 C 176.058594 356.523438 175.945312 357.003906 175.578125 357.230469 C 175.457031 357.308594 175.316406 357.34375 175.175781 357.34375 Z M 175.175781 357.34375 " fill-opacity="1" fill-rule="nonzero"/><path fill="#ffffff" d="M 150.023438 352.933594 C 149.777344 352.933594 149.542969 352.820312 149.394531 352.601562 C 149.324219 352.503906 142.242188 342.523438 128.652344 331.441406 C 120.679688 324.9375 112.054688 319.332031 103.015625 314.773438 C 91.730469 309.078125 79.773438 305.019531 67.472656 302.714844 C 67.054688 302.636719 66.777344 302.234375 66.855469 301.8125 C 66.933594 301.394531 67.335938 301.117188 67.753906 301.195312 C 80.207031 303.535156 92.316406 307.636719 103.742188 313.410156 C 112.882812 318.019531 121.605469 323.699219 129.664062 330.28125 C 143.402344 341.492188 150.582031 351.613281 150.648438 351.71875 C 150.894531 352.070312 150.808594 352.550781 150.46875 352.792969 C 150.328125 352.878906 150.179688 352.933594 150.023438 352.933594 Z M 150.023438 352.933594 " fill-opacity="1" fill-rule="nonzero"/><path fill="#ffffff" d="M 55.890625 235.589844 C 55.628906 235.589844 55.375 235.457031 55.238281 235.222656 C 55.007812 234.855469 55.121094 234.382812 55.488281 234.15625 L 84.492188 216.28125 C 84.859375 216.054688 85.328125 216.167969 85.554688 216.535156 C 85.78125 216.902344 85.667969 217.371094 85.300781 217.601562 L 56.300781 235.476562 C 56.167969 235.554688 56.03125 235.589844 55.890625 235.589844 Z M 55.890625 235.589844 " fill-opacity="1" fill-rule="nonzero"/><path fill="#ffffff" d="M 45.074219 235.371094 C 44.8125 235.371094 44.558594 235.238281 44.421875 235.003906 C 44.195312 234.636719 44.308594 234.164062 44.671875 233.9375 L 73.675781 216.0625 C 74.042969 215.835938 74.511719 215.949219 74.738281 216.316406 C 74.964844 216.683594 74.851562 217.15625 74.488281 217.382812 L 45.484375 235.257812 C 45.355469 235.335938 45.214844 235.371094 45.074219 235.371094 Z M 45.074219 235.371094 " fill-opacity="1" fill-rule="nonzero"/><path fill="#ffffff" d="M 34.15625 235.542969 C 33.894531 235.542969 33.640625 235.414062 33.5 235.179688 C 33.273438 234.8125 33.386719 234.339844 33.753906 234.113281 L 60.539062 217.601562 C 60.90625 217.371094 61.375 217.488281 61.605469 217.851562 C 61.832031 218.21875 61.71875 218.691406 61.351562 218.917969 L 34.5625 235.429688 C 34.433594 235.511719 34.292969 235.542969 34.15625 235.542969 Z M 34.15625 235.542969 " fill-opacity="1" fill-rule="nonzero"/><path fill="#f15e22" d="M 130.136719 277.074219 C 130.136719 277.074219 203.183594 290.21875 241.546875 349.867188 C 241.546875 349.867188 227.503906 355.796875 207.320312 356.574219 C 195.769531 327.050781 162.050781 295.011719 130.136719 277.074219 Z M 130.136719 277.074219 " fill-opacity="1" fill-rule="nonzero"/><path fill="#ffffff" d="M 239.496094 350.652344 C 230.589844 337.414062 219.277344 325.382812 205.890625 314.902344 C 195.160156 306.511719 183.089844 299.089844 169.988281 292.835938 C 154.6875 285.539062 141.5625 281.5625 134.765625 279.78125 C 130.921875 277.667969 124.824219 274.28125 124.824219 274.28125 L 130.421875 275.566406 C 130.605469 275.601562 135.039062 276.480469 142.3125 278.71875 C 149.011719 280.769531 159.484375 284.410156 171.3125 290.050781 C 184.613281 296.398438 196.878906 303.945312 207.78125 312.476562 C 221.421875 323.15625 232.953125 335.417969 242.042969 348.933594 Z M 239.496094 350.652344 " fill-opacity="1" fill-rule="nonzero"/><path fill="#0a5b2e" d="M 65.5625 236.332031 L 32.164062 236.332031 C 31.425781 236.332031 31.023438 235.746094 30.882812 235.011719 L 29.636719 229.789062 C 29.515625 229.152344 29.957031 227.957031 30.507812 227.625 L 46.453125 217.660156 C 46.671875 217.53125 46.914062 217.453125 47.167969 217.441406 L 95.910156 214.761719 C 96.617188 214.71875 97.261719 215.171875 97.46875 215.84375 C 97.679688 216.515625 97.398438 217.25 96.796875 217.617188 L 66.355469 236.105469 C 66.121094 236.253906 65.84375 236.332031 65.5625 236.332031 Z M 32.148438 233.238281 L 65.128906 233.238281 L 89.917969 218.183594 L 47.707031 220.5 L 31.574219 230.269531 Z M 32.148438 233.238281 " fill-opacity="1" fill-rule="nonzero"/><path fill="#9dcb3c" d="M 201.640625 169.992188 L 256.609375 186.328125 L 288.890625 213.433594 L 231.558594 197.585938 Z M 201.640625 169.992188 " fill-opacity="1" fill-rule="nonzero"/><path fill="#0a5b2e" d="M 288.890625 214.980469 C 288.75 214.980469 288.621094 214.960938 288.480469 214.929688 L 231.148438 199.078125 C 230.914062 199.015625 230.695312 198.894531 230.511719 198.730469 L 200.59375 171.136719 C 200.0625 170.644531 199.941406 169.859375 200.296875 169.242188 C 200.65625 168.613281 201.386719 168.316406 202.078125 168.523438 L 257.046875 184.855469 C 257.246094 184.914062 257.4375 185.011719 257.59375 185.152344 L 289.832031 212.222656 C 290.199219 212.5 290.433594 212.945312 290.433594 213.441406 C 290.433594 214.265625 289.796875 214.9375 288.988281 214.988281 C 288.960938 214.980469 288.925781 214.980469 288.890625 214.980469 Z M 232.328125 196.195312 L 282.472656 210.054688 L 255.867188 187.71875 L 207.582031 173.371094 Z M 232.328125 196.195312 " fill-opacity="1" fill-rule="nonzero"/><path fill="#9dcb3c" d="M 288.890625 213.433594 L 289.363281 235.808594 C 289.363281 235.808594 260.953125 225.128906 231.296875 222.351562 C 231.316406 206.78125 231.558594 197.59375 231.558594 197.59375 Z M 288.890625 213.433594 " fill-opacity="1" fill-rule="nonzero"/><path fill="#0a5b2e" d="M 289.363281 237.34375 C 289.351562 237.34375 289.34375 237.34375 289.335938 237.34375 C 289.160156 237.34375 288.988281 237.308594 288.820312 237.246094 C 288.75 237.222656 281.632812 234.558594 271 231.589844 C 261.207031 228.855469 246.34375 225.300781 231.148438 223.878906 C 230.355469 223.808594 229.753906 223.136719 229.753906 222.339844 C 229.769531 206.9375 230.015625 197.636719 230.015625 197.542969 C 230.023438 197.070312 230.257812 196.625 230.644531 196.34375 C 231.027344 196.066406 231.515625 195.96875 231.96875 196.101562 L 289.300781 211.949219 C 289.957031 212.132812 290.417969 212.726562 290.433594 213.410156 L 290.90625 235.703125 C 290.90625 235.738281 290.90625 235.773438 290.90625 235.808594 C 290.90625 236.652344 290.21875 237.34375 289.363281 237.34375 Z M 232.839844 220.945312 C 247.78125 222.472656 262.246094 225.9375 271.863281 228.628906 C 279.183594 230.671875 284.871094 232.574219 287.773438 233.597656 L 287.375 214.621094 L 233.058594 199.601562 C 232.988281 202.945312 232.859375 210.421875 232.839844 220.945312 Z M 232.839844 220.945312 " fill-opacity="1" fill-rule="nonzero"/><path fill="#ffffff" d="M 255.066406 202.441406 C 254.863281 202.441406 254.671875 202.363281 254.515625 202.214844 L 235.054688 182.695312 C 234.75 182.390625 234.761719 181.902344 235.054688 181.605469 C 235.363281 181.308594 235.851562 181.308594 236.148438 181.605469 L 255.605469 201.121094 C 255.910156 201.425781 255.902344 201.917969 255.605469 202.214844 C 255.457031 202.363281 255.257812 202.441406 255.066406 202.441406 Z M 255.066406 202.441406 " fill-opacity="1" fill-rule="nonzero"/><path fill="#ffffff" d="M 269.363281 206.535156 C 269.167969 206.535156 268.976562 206.464844 268.828125 206.316406 L 247.609375 185.894531 C 247.304688 185.597656 247.292969 185.105469 247.589844 184.800781 C 247.886719 184.496094 248.375 184.488281 248.679688 184.785156 L 269.902344 205.207031 C 270.207031 205.503906 270.214844 205.996094 269.917969 206.300781 C 269.761719 206.457031 269.5625 206.535156 269.363281 206.535156 Z M 269.363281 206.535156 " fill-opacity="1" fill-rule="nonzero"/><path fill="#ffffff" d="M 243.734375 199.550781 C 243.542969 199.550781 243.351562 199.480469 243.203125 199.339844 L 221.179688 178.550781 C 220.867188 178.253906 220.855469 177.773438 221.144531 177.457031 C 221.433594 177.144531 221.921875 177.132812 222.234375 177.421875 L 244.257812 198.214844 C 244.574219 198.511719 244.582031 198.992188 244.292969 199.304688 C 244.144531 199.472656 243.9375 199.550781 243.734375 199.550781 Z M 243.734375 199.550781 " fill-opacity="1" fill-rule="nonzero"/><path fill="#ffffff" d="M 186.394531 218.175781 C 186.394531 218.175781 187.152344 203.6875 195.28125 204.449219 C 203.410156 205.207031 202.820312 218.796875 202.820312 218.796875 C 202.820312 218.796875 196.511719 218.070312 186.394531 218.175781 Z M 186.394531 218.175781 " fill-opacity="1" fill-rule="nonzero"/><path fill="#0a5b2e" d="M 202.820312 220.027344 C 202.773438 220.027344 202.722656 220.027344 202.679688 220.019531 C 202.609375 220.011719 197.132812 219.398438 188.382812 219.398438 C 187.730469 219.398438 187.066406 219.398438 186.410156 219.40625 C 186.070312 219.417969 185.742188 219.277344 185.503906 219.023438 C 185.269531 218.777344 185.148438 218.445312 185.164062 218.105469 C 185.171875 217.957031 185.367188 214.464844 186.523438 210.902344 C 188.617188 204.511719 192.109375 203.175781 194.671875 203.175781 C 194.90625 203.175781 195.152344 203.183594 195.394531 203.210938 C 198.109375 203.460938 201.683594 205.121094 203.296875 211.601562 C 204.195312 215.226562 204.058594 218.699219 204.058594 218.839844 C 204.039062 219.179688 203.882812 219.503906 203.621094 219.730469 C 203.394531 219.921875 203.117188 220.027344 202.820312 220.027344 Z M 188.382812 216.925781 C 194.804688 216.925781 199.417969 217.242188 201.582031 217.425781 C 201.484375 214.21875 200.683594 206.1875 195.167969 205.671875 C 195.003906 205.652344 194.835938 205.644531 194.679688 205.644531 C 192.144531 205.644531 190.1875 207.671875 188.878906 211.671875 C 188.226562 213.660156 187.914062 215.660156 187.753906 216.917969 C 187.964844 216.925781 188.175781 216.925781 188.382812 216.925781 Z M 188.382812 216.925781 " fill-opacity="1" fill-rule="nonzero"/><path fill="#9ecc3b" d="M 266.214844 223.886719 C 266.214844 223.886719 283.359375 233.886719 285.445312 245.804688 C 287.53125 257.726562 272.597656 260.34375 272.597656 260.34375 C 272.597656 260.34375 257.664062 262.964844 255.570312 251.054688 C 253.496094 239.132812 266.214844 223.886719 266.214844 223.886719 Z M 266.214844 223.886719 " fill-opacity="1" fill-rule="nonzero"/><path fill="#0a5b2e" d="M 269.214844 262.132812 C 266.902344 262.132812 263.527344 261.820312 260.542969 260.300781 C 256.96875 258.484375 254.796875 255.464844 254.0625 251.316406 C 253.136719 246.015625 254.71875 239.605469 258.765625 232.253906 C 261.722656 226.882812 264.894531 223.058594 265.035156 222.898438 C 265.515625 222.324219 266.34375 222.175781 266.996094 222.558594 C 267.179688 222.664062 271.464844 225.179688 276.070312 229.222656 C 282.375 234.75 286.046875 240.242188 286.972656 245.542969 C 287.941406 251.089844 285.75 255.699219 280.621094 258.867188 C 276.941406 261.148438 273.035156 261.847656 272.867188 261.882812 C 272.808594 261.882812 271.324219 262.132812 269.214844 262.132812 Z M 266.570312 225.929688 C 263.847656 229.503906 255.457031 241.429688 257.097656 250.78125 C 257.65625 253.960938 259.234375 256.179688 261.929688 257.542969 C 264.371094 258.78125 267.234375 259.042969 269.203125 259.042969 C 271.027344 259.042969 272.320312 258.824219 272.335938 258.824219 C 272.371094 258.816406 275.886719 258.179688 279.0625 256.1875 C 283.03125 253.707031 284.667969 250.300781 283.929688 246.066406 C 282.296875 236.722656 270.347656 228.359375 266.570312 225.929688 Z M 266.570312 225.929688 " fill-opacity="1" fill-rule="nonzero"/><path fill="#0a5b2e" d="M 274.195312 269.558594 C 273.460938 269.558594 272.816406 269.03125 272.675781 268.289062 L 264.703125 224.167969 C 264.554688 223.328125 265.105469 222.523438 265.953125 222.367188 C 266.789062 222.21875 267.589844 222.769531 267.738281 223.617188 L 275.710938 267.742188 C 275.859375 268.578125 275.308594 269.382812 274.464844 269.539062 C 274.378906 269.546875 274.28125 269.558594 274.195312 269.558594 Z M 274.195312 269.558594 " fill-opacity="1" fill-rule="nonzero"/><path fill="#0a5b2e" d="M 271.542969 255.035156 C 271.507812 255.035156 271.472656 255.035156 271.4375 255.027344 L 255.730469 252.964844 C 255.308594 252.914062 255.003906 252.519531 255.066406 252.101562 C 255.117188 251.683594 255.511719 251.375 255.929688 251.4375 L 271.628906 253.5 C 272.046875 253.550781 272.351562 253.945312 272.292969 254.363281 C 272.257812 254.753906 271.925781 255.035156 271.542969 255.035156 Z M 271.542969 255.035156 " fill-opacity="1" fill-rule="nonzero"/><path fill="#0a5b2e" d="M 269.859375 245.421875 C 269.824219 245.421875 269.789062 245.421875 269.753906 245.414062 L 255.972656 243.605469 C 255.554688 243.550781 255.25 243.160156 255.308594 242.738281 C 255.363281 242.320312 255.753906 242.015625 256.171875 242.078125 L 269.953125 243.882812 C 270.375 243.9375 270.679688 244.328125 270.617188 244.75 C 270.566406 245.132812 270.234375 245.421875 269.859375 245.421875 Z M 269.859375 245.421875 " fill-opacity="1" fill-rule="nonzero"/><path fill="#0a5b2e" d="M 268.167969 235.796875 C 268.132812 235.796875 268.097656 235.796875 268.0625 235.789062 L 259.523438 234.671875 C 259.105469 234.617188 258.800781 234.226562 258.859375 233.808594 C 258.914062 233.386719 259.304688 233.089844 259.722656 233.144531 L 268.261719 234.261719 C 268.679688 234.3125 268.988281 234.707031 268.925781 235.125 C 268.882812 235.519531 268.550781 235.796875 268.167969 235.796875 Z M 268.167969 235.796875 " fill-opacity="1" fill-rule="nonzero"/><path fill="#0a5b2e" d="M 270.722656 250.363281 C 270.441406 250.363281 270.171875 250.214844 270.035156 249.945312 C 269.839844 249.570312 269.988281 249.097656 270.363281 248.90625 L 284.433594 241.613281 C 284.808594 241.421875 285.28125 241.570312 285.472656 241.945312 C 285.664062 242.320312 285.515625 242.792969 285.140625 242.984375 L 271.070312 250.277344 C 270.964844 250.335938 270.84375 250.363281 270.722656 250.363281 Z M 270.722656 250.363281 " fill-opacity="1" fill-rule="nonzero"/><path fill="#0a5b2e" d="M 272.5625 258.738281 C 272.285156 258.738281 272.011719 258.589844 271.882812 258.328125 C 271.683594 257.953125 271.832031 257.480469 272.207031 257.289062 L 284.746094 250.703125 C 285.121094 250.503906 285.59375 250.652344 285.785156 251.027344 C 285.988281 251.402344 285.839844 251.875 285.464844 252.066406 L 272.921875 258.652344 C 272.808594 258.703125 272.683594 258.738281 272.5625 258.738281 Z M 272.5625 258.738281 " fill-opacity="1" fill-rule="nonzero"/><path fill="#0a5b2e" d="M 269.039062 240.75 C 268.761719 240.75 268.488281 240.601562 268.351562 240.328125 C 268.15625 239.953125 268.304688 239.484375 268.679688 239.289062 L 279.007812 233.9375 C 279.382812 233.746094 279.855469 233.894531 280.046875 234.269531 C 280.238281 234.644531 280.089844 235.117188 279.714844 235.308594 L 269.386719 240.660156 C 269.273438 240.714844 269.152344 240.75 269.039062 240.75 Z M 269.039062 240.75 " fill-opacity="1" fill-rule="nonzero"/><path fill="#0a5b2e" d="M 267.347656 231.125 C 267.066406 231.125 266.796875 230.976562 266.65625 230.707031 C 266.464844 230.332031 266.613281 229.859375 266.988281 229.667969 L 271.699219 227.230469 C 272.074219 227.039062 272.546875 227.1875 272.738281 227.5625 C 272.929688 227.9375 272.78125 228.410156 272.40625 228.601562 L 267.695312 231.039062 C 267.589844 231.101562 267.46875 231.125 267.347656 231.125 Z M 267.347656 231.125 " fill-opacity="1" fill-rule="nonzero"/><path fill="#9ecc3b" d="M 312.574219 214.980469 C 312.574219 214.980469 328.804688 226.402344 329.878906 238.453125 C 330.941406 250.503906 315.84375 251.847656 315.84375 251.847656 C 315.84375 251.847656 300.734375 253.191406 299.671875 241.132812 C 298.597656 229.082031 312.574219 214.980469 312.574219 214.980469 Z M 312.574219 214.980469 " fill-opacity="1" fill-rule="nonzero"/><path fill="#0a5b2e" d="M 314.515625 253.4375 C 312.574219 253.4375 308.804688 253.203125 305.386719 251.613281 C 301.066406 249.605469 298.554688 246.03125 298.136719 241.273438 C 297.664062 235.910156 299.785156 229.660156 304.441406 222.683594 C 307.84375 217.582031 311.332031 214.046875 311.480469 213.898438 C 312.015625 213.363281 312.851562 213.285156 313.460938 213.722656 C 313.636719 213.84375 317.691406 216.71875 321.941406 221.136719 C 327.75 227.1875 330.941406 232.96875 331.414062 238.332031 C 331.910156 243.945312 329.328125 248.347656 323.953125 251.0625 C 320.089844 253.019531 316.140625 253.386719 315.972656 253.402344 C 315.957031 253.386719 315.398438 253.4375 314.515625 253.4375 Z M 312.753906 217.039062 C 309.746094 220.359375 300.359375 231.546875 301.199219 240.992188 C 301.53125 244.695312 303.316406 247.246094 306.667969 248.808594 C 309.554688 250.144531 312.816406 250.347656 314.507812 250.347656 C 315.242188 250.347656 315.695312 250.3125 315.703125 250.3125 C 315.738281 250.3125 319.296875 249.96875 322.628906 248.257812 C 326.796875 246.128906 328.71875 242.871094 328.332031 238.59375 C 327.503906 229.117188 316.304688 219.78125 312.753906 217.039062 Z M 312.753906 217.039062 " fill-opacity="1" fill-rule="nonzero"/><path fill="#0a5b2e" d="M 316.714844 260.613281 C 315.929688 260.613281 315.257812 260.011719 315.179688 259.21875 L 311.039062 215.121094 C 310.957031 214.273438 311.578125 213.523438 312.433594 213.433594 C 313.277344 213.355469 314.027344 213.976562 314.117188 214.832031 L 318.257812 258.929688 C 318.335938 259.777344 317.71875 260.527344 316.863281 260.613281 C 316.8125 260.613281 316.757812 260.613281 316.714844 260.613281 Z M 316.714844 260.613281 " fill-opacity="1" fill-rule="nonzero"/><path fill="#0a5b2e" d="M 315.292969 246.46875 C 315.242188 246.46875 315.179688 246.460938 315.128906 246.453125 L 299.65625 243.0625 C 299.234375 242.976562 298.972656 242.558594 299.070312 242.144531 C 299.15625 241.726562 299.574219 241.464844 299.984375 241.5625 L 315.460938 244.949219 C 315.878906 245.035156 316.140625 245.457031 316.042969 245.867188 C 315.972656 246.222656 315.652344 246.46875 315.292969 246.46875 Z M 315.292969 246.46875 " fill-opacity="1" fill-rule="nonzero"/><path fill="#0a5b2e" d="M 314.4375 236.742188 C 314.386719 236.742188 314.324219 236.730469 314.273438 236.722656 L 300.699219 233.746094 C 300.28125 233.660156 300.019531 233.238281 300.117188 232.828125 C 300.203125 232.410156 300.621094 232.148438 301.03125 232.242188 L 314.605469 235.222656 C 315.023438 235.308594 315.285156 235.726562 315.1875 236.136719 C 315.109375 236.496094 314.789062 236.742188 314.4375 236.742188 Z M 314.4375 236.742188 " fill-opacity="1" fill-rule="nonzero"/><path fill="#0a5b2e" d="M 313.574219 227.011719 C 313.523438 227.011719 313.460938 227.003906 313.410156 226.996094 L 304.992188 225.152344 C 304.574219 225.066406 304.3125 224.648438 304.40625 224.238281 C 304.496094 223.816406 304.914062 223.554688 305.324219 223.652344 L 313.742188 225.492188 C 314.160156 225.582031 314.421875 226 314.324219 226.410156 C 314.246094 226.769531 313.925781 227.011719 313.574219 227.011719 Z M 313.574219 227.011719 " fill-opacity="1" fill-rule="nonzero"/><path fill="#0a5b2e" d="M 314.875 241.746094 C 314.570312 241.746094 314.28125 241.5625 314.160156 241.265625 C 313.992188 240.871094 314.1875 240.417969 314.578125 240.25 L 329.214844 234.191406 C 329.605469 234.023438 330.0625 234.21875 330.21875 234.609375 C 330.382812 235.003906 330.191406 235.457031 329.800781 235.625 L 315.164062 241.683594 C 315.074219 241.726562 314.980469 241.746094 314.875 241.746094 Z M 314.875 241.746094 " fill-opacity="1" fill-rule="nonzero"/><path fill="#0a5b2e" d="M 316 250.242188 C 315.695312 250.242188 315.414062 250.066406 315.285156 249.769531 C 315.121094 249.375 315.300781 248.921875 315.695312 248.757812 L 328.753906 243.265625 C 329.144531 243.097656 329.597656 243.28125 329.765625 243.675781 C 329.929688 244.066406 329.746094 244.523438 329.355469 244.6875 L 316.296875 250.179688 C 316.199219 250.222656 316.105469 250.242188 316 250.242188 Z M 316 250.242188 " fill-opacity="1" fill-rule="nonzero"/><path fill="#0a5b2e" d="M 314.011719 232.015625 C 313.707031 232.015625 313.417969 231.832031 313.296875 231.535156 C 313.128906 231.144531 313.324219 230.691406 313.714844 230.53125 L 324.453125 226.078125 C 324.84375 225.914062 325.296875 226.105469 325.464844 226.5 C 325.628906 226.890625 325.4375 227.34375 325.046875 227.503906 L 314.308594 231.957031 C 314.210938 232 314.117188 232.015625 314.011719 232.015625 Z M 314.011719 232.015625 " fill-opacity="1" fill-rule="nonzero"/><path fill="#0a5b2e" d="M 313.15625 222.289062 C 312.851562 222.289062 312.5625 222.105469 312.441406 221.808594 C 312.277344 221.414062 312.46875 220.960938 312.859375 220.796875 L 317.761719 218.769531 C 318.15625 218.605469 318.609375 218.796875 318.765625 219.1875 C 318.929688 219.582031 318.738281 220.035156 318.347656 220.203125 L 313.445312 222.226562 C 313.347656 222.273438 313.253906 222.289062 313.15625 222.289062 Z M 313.15625 222.289062 " fill-opacity="1" fill-rule="nonzero"/><g clip-path="url(#7726b400af)"><path fill="#0a5b2e" d="M 342.550781 40.613281 C 340.109375 34.832031 336.621094 29.644531 332.164062 25.191406 C 327.714844 20.738281 322.535156 17.238281 316.757812 14.792969 C 310.785156 12.269531 304.441406 10.984375 297.902344 10.984375 L 77.042969 10.984375 C 70.5 10.984375 64.152344 12.269531 58.175781 14.800781 C 52.402344 17.246094 47.21875 20.738281 42.773438 25.199219 C 38.324219 29.65625 34.824219 34.839844 32.382812 40.621094 C 29.855469 46.605469 28.570312 52.953125 28.570312 59.5 C 28.570312 59.5 28.570312 220.761719 28.582031 220.761719 C 28.582031 220.761719 28.371094 228.59375 30.054688 235.246094 C 31.738281 241.902344 32.480469 245.308594 37.511719 257.21875 C 41.707031 267.148438 46.898438 276.726562 52.949219 285.6875 C 58.945312 294.558594 65.816406 302.90625 73.394531 310.484375 C 80.96875 318.066406 89.304688 324.953125 98.167969 330.953125 C 107.117188 337.003906 116.683594 342.210938 126.601562 346.410156 C 136.703125 350.6875 147.285156 353.972656 158.03125 356.171875 C 169.054688 358.433594 180.410156 359.578125 191.765625 359.578125 C 203.125 359.578125 214.472656 358.433594 225.503906 356.171875 C 236.25 353.972656 246.832031 350.6875 256.933594 346.410156 C 266.851562 342.210938 276.417969 337.015625 285.367188 330.953125 C 294.230469 324.953125 302.566406 318.074219 310.140625 310.484375 C 317.710938 302.90625 324.589844 294.558594 330.582031 285.6875 C 336.628906 276.726562 346.371094 264.144531 346.371094 246.703125 C 346.371094 226.515625 346.371094 59.5 346.371094 59.5 C 346.363281 52.953125 345.082031 46.605469 342.550781 40.613281 Z M 36.328125 242.25 C 32.402344 228.734375 32.925781 221.128906 32.925781 220.761719 L 32.925781 59.5 C 32.925781 53.539062 34.09375 47.757812 36.386719 42.308594 C 38.601562 37.050781 41.785156 32.328125 45.84375 28.273438 C 49.898438 24.214844 54.617188 21.035156 59.867188 18.808594 C 65.300781 16.503906 71.085938 15.34375 77.042969 15.34375 L 297.902344 15.34375 C 303.859375 15.34375 309.632812 16.511719 315.074219 18.808594 C 320.328125 21.035156 325.046875 24.214844 329.101562 28.273438 C 333.15625 32.335938 336.332031 37.058594 338.554688 42.316406 C 340.859375 47.757812 342.019531 53.546875 342.019531 59.511719 C 342.019531 59.511719 342.019531 241.132812 342.019531 248.703125 C 342.019531 256.273438 338.179688 264.394531 338.179688 264.394531 C 334.945312 270.964844 331.273438 277.3125 327.171875 283.398438 C 321.328125 292.050781 314.621094 300.199219 307.234375 307.59375 C 299.847656 314.992188 291.707031 321.707031 283.066406 327.558594 C 274.332031 333.460938 265 338.535156 255.328125 342.628906 C 245.472656 346.804688 235.160156 350.007812 224.675781 352.15625 C 213.921875 354.355469 202.84375 355.472656 191.765625 355.472656 C 180.691406 355.472656 169.613281 354.355469 158.859375 352.15625 C 148.375 350.007812 138.0625 346.804688 128.207031 342.628906 C 118.535156 338.535156 109.203125 333.460938 100.46875 327.558594 C 91.828125 321.707031 83.6875 314.992188 76.300781 307.59375 C 68.914062 300.199219 62.207031 292.050781 56.363281 283.398438 C 51.554688 276.28125 47.308594 268.761719 43.6875 260.980469 " fill-opacity="1" fill-rule="nonzero"/></g><g fill="#1d6336" fill-opacity="1"><g transform="translate(69.107171, 85.546535)"><g><path d="M 2.582031 -35.960938 L 2.582031 0 L 10.050781 0 L 10.050781 -15.121094 L 22.082031 -15.121094 L 22.082031 -21.574219 L 10.050781 -21.574219 L 10.050781 -29.503906 L 24.386719 -29.503906 L 24.386719 -35.960938 Z M 2.582031 -35.960938 "/></g></g></g><g fill="#1d6336" fill-opacity="1"><g transform="translate(94.416968, 85.546535)"><g><path d="M 9.636719 -36.050781 L 0.644531 0 L 8.667969 0 L 10.375 -7.746094 L 19.179688 -7.746094 L 20.929688 0 L 28.90625 0 L 19.917969 -36.050781 Z M 14.753906 -27.429688 L 17.703125 -14.199219 L 11.800781 -14.199219 Z M 14.753906 -27.429688 "/></g></g></g><g fill="#1d6336" fill-opacity="1"><g transform="translate(123.968106, 85.546535)"><g><path d="M 10.050781 -12.910156 L 13.875 -12.910156 L 18.808594 0 L 26.878906 0 L 21.207031 -13.96875 C 24.433594 -15.304688 26.878906 -18.164062 26.878906 -23.972656 L 26.878906 -24.894531 C 26.878906 -34.4375 20.238281 -35.960938 14.382812 -35.960938 L 2.582031 -35.960938 L 2.582031 0 L 10.050781 0 Z M 10.050781 -19.363281 L 10.050781 -29.503906 L 14.707031 -29.503906 C 16.734375 -29.503906 19.316406 -28.722656 19.316406 -24.664062 L 19.316406 -24.203125 C 19.316406 -20.148438 16.734375 -19.363281 14.707031 -19.363281 Z M 10.050781 -19.363281 "/></g></g></g><g fill="#1d6336" fill-opacity="1"><g transform="translate(152.689422, 85.546535)"><g><path d="M 30.242188 -23.003906 L 30.058594 -15.8125 L 30.058594 0 L 37.527344 0 L 37.527344 -35.960938 L 26.460938 -35.960938 L 20.054688 -12.953125 L 13.601562 -35.960938 L 2.582031 -35.960938 L 2.582031 0 L 10.050781 0 L 10.050781 -15.8125 L 9.820312 -23.003906 L 16.226562 0 L 23.835938 0 Z M 30.242188 -23.003906 "/></g></g></g><g fill="#1d6336" fill-opacity="1"><g transform="translate(192.75174, 85.546535)"><g><path d="M 13.371094 -15.03125 C 18.578125 -14.335938 19.917969 -12.910156 19.917969 -10.328125 L 19.917969 -10.097656 C 19.917969 -7.699219 18.210938 -5.855469 14.753906 -5.855469 L 14.335938 -5.855469 C 10.878906 -5.855469 9.035156 -7.746094 9.035156 -12.261719 L 1.566406 -12.261719 L 1.566406 -11.847656 C 1.566406 -3.179688 6.039062 0.597656 14.523438 0.597656 C 22.960938 0.597656 27.523438 -3.410156 27.523438 -10.328125 L 27.523438 -10.789062 C 27.523438 -17.472656 23.558594 -20.148438 15.722656 -21.207031 C 10.464844 -21.898438 9.40625 -23.28125 9.40625 -25.910156 L 9.40625 -26.140625 C 9.40625 -28.445312 11.15625 -30.105469 14.152344 -30.105469 L 14.570312 -30.105469 C 18.347656 -30.105469 19.777344 -27.9375 19.777344 -23.234375 L 27.246094 -23.234375 L 27.246094 -24.203125 C 27.246094 -32.640625 23.375 -36.558594 14.523438 -36.558594 C 6.316406 -36.558594 1.84375 -32.363281 1.84375 -25.863281 L 1.84375 -25.355469 C 1.84375 -18.855469 5.53125 -16.089844 13.371094 -15.03125 Z M 13.371094 -15.03125 "/></g></g></g><g fill="#1d6336" fill-opacity="1"><g transform="translate(221.841865, 85.546535)"><g><path d="M 16.550781 -29.503906 L 24.894531 -29.503906 L 24.894531 -35.960938 L 0.785156 -35.960938 L 0.785156 -29.503906 L 9.082031 -29.503906 L 9.082031 0 L 16.550781 0 Z M 16.550781 -29.503906 "/></g></g></g><g fill="#1d6336" fill-opacity="1"><g transform="translate(247.520471, 85.546535)"><g><path d="M 9.636719 -36.050781 L 0.644531 0 L 8.667969 0 L 10.375 -7.746094 L 19.179688 -7.746094 L 20.929688 0 L 28.90625 0 L 19.917969 -36.050781 Z M 14.753906 -27.429688 L 17.703125 -14.199219 L 11.800781 -14.199219 Z M 14.753906 -27.429688 "/></g></g></g><g fill="#1d6336" fill-opacity="1"><g transform="translate(277.07162, 85.546535)"><g><path d="M 18.164062 -11.019531 L 28.445312 -35.960938 L 20.285156 -35.960938 L 14.429688 -20.238281 L 8.527344 -35.960938 L 0.367188 -35.960938 L 10.695312 -11.019531 L 10.695312 0 L 18.164062 0 Z M 18.164062 -11.019531 "/></g></g></g><g fill="#1d6336" fill-opacity="1"><g transform="translate(151.511076, 133.339157)"><g><path d="M 9.683594 -30.039062 L 1.105469 0 L 4.078125 0 L 6.214844 -7.625 L 17.078125 -7.625 L 19.210938 0 L 22.183594 0 L 13.609375 -30.039062 Z M 11.625 -27.027344 L 16.351562 -10.101562 L 6.898438 -10.101562 Z M 11.625 -27.027344 "/></g></g></g><g fill="#1d6336" fill-opacity="1"><g transform="translate(174.799048, 133.339157)"><g><path d="M 4.992188 -14.105469 L 4.992188 -15.628906 C 4.992188 -24.089844 7.28125 -27.671875 12.234375 -27.671875 L 12.503906 -27.671875 C 16.960938 -27.671875 18.832031 -25.042969 18.832031 -18.90625 L 21.652344 -18.90625 L 21.652344 -19.972656 C 21.652344 -26.683594 18.601562 -30.152344 12.273438 -30.152344 C 5.449219 -30.152344 2.171875 -25.921875 2.171875 -15.628906 L 2.171875 -14.105469 C 2.171875 -3.8125 5.449219 0.417969 12.273438 0.417969 C 18.601562 0.417969 21.652344 -3.050781 21.652344 -9.300781 L 21.652344 -9.683594 L 18.832031 -9.683594 C 18.832031 -4.765625 16.960938 -2.058594 12.503906 -2.058594 L 12.234375 -2.058594 C 7.242188 -2.058594 4.992188 -5.640625 4.992188 -14.105469 Z M 4.992188 -14.105469 "/></g></g></g><g fill="#1d6336" fill-opacity="1"><g transform="translate(198.353804, 133.339157)"><g><path d="M 22.300781 -29.730469 L 19.707031 -29.730469 L 19.707031 -11.550781 L 19.820312 -4.652344 L 5.792969 -29.730469 L 2.820312 -29.730469 L 2.820312 0 L 5.414062 0 L 5.414062 -18.183594 L 5.261719 -25.082031 L 19.324219 0 L 22.300781 0 Z M 22.300781 -29.730469 "/></g></g></g></svg>